<svg xmlns="http://www.w3.org/2000/svg" width="36" height="37" viewBox="0 0 36 37">
  <g id="Behance_svg" transform="translate(-1763 -894.25)">
    <ellipse id="Ellipse_18" data-name="Ellipse 18" cx="18" cy="18.5" rx="18" ry="18.5" transform="translate(1763 894.25)" fill="#281d58"/>
    <g id="Page-1" transform="translate(1772.078 906.951)">
      <g id="Dribbble-Light-Preview">
        <g id="icons">
          <path id="behance-_163_" data-name="behance-[#163]" d="M55.581,7323.892h4.539v-1.3H55.581Zm2.238,2.6a1.771,1.771,0,0,0-1.856,1.793H59.6c-.246-1.382-.857-1.793-1.777-1.793Zm.142,5.38a1.822,1.822,0,0,0,1.761-1.088h1.966a3.61,3.61,0,0,1-3.807,2.81c-2.66,0-4.152-1.892-4.152-4.4,0-5.915,8.529-6.129,8.1.553H55.963c.057,1.347.616,2.124,2,2.124Zm-8.848-.259c1.073,0,1.824-.41,1.824-1.525,0-1.16-.664-1.66-1.778-1.66H46.47v3.185Zm-.142-4.924c.893,0,1.51-.41,1.51-1.383,0-1.017-.717-1.329-1.7-1.329H46.47v2.712Zm.315-4.693c2.115,0,3.586.7,3.586,2.873a2.488,2.488,0,0,1-1.526,2.427,2.8,2.8,0,0,1,2.061,2.935c0,2.275-1.8,3.363-3.964,3.363H44V7322Z" transform="translate(-44 -7322)" fill="#a353ff" fill-rule="evenodd"/>
        </g>
      </g>
    </g>
  </g>
</svg>
