<svg xmlns="http://www.w3.org/2000/svg" width="36" height="37" viewBox="0 0 36 37">
  <g id="discord_svg" transform="translate(-1763 -842.25)">
    <ellipse id="Ellipse_17" data-name="Ellipse 17" cx="18" cy="18.5" rx="18" ry="18.5" transform="translate(1763 842.25)" fill="#281d58"/>
    <path id="discord-svgrepo-com" d="M18.59,5.89a15.705,15.705,0,0,0-3.92-1.23,9.058,9.058,0,0,0-.5,1.04,14.351,14.351,0,0,0-4.34,0,11.147,11.147,0,0,0-.51-1.04A15.705,15.705,0,0,0,5.4,5.89,16.415,16.415,0,0,0,2.58,16.87a15.7,15.7,0,0,0,4.81,2.46,12.1,12.1,0,0,0,1.03-1.69,9.342,9.342,0,0,1-1.62-.79c.14-.1.27-.21.4-.31a11.09,11.09,0,0,0,9.61,0c.13.11.26.21.4.31a10.552,10.552,0,0,1-1.62.79,12.1,12.1,0,0,0,1.03,1.69,15.589,15.589,0,0,0,4.81-2.46A16.358,16.358,0,0,0,18.61,5.89ZM8.84,14.67a1.84,1.84,0,0,1-1.71-1.94,1.826,1.826,0,0,1,1.71-1.94,1.82,1.82,0,0,1,1.71,1.94A1.833,1.833,0,0,1,8.84,14.67Zm6.31,0a1.84,1.84,0,0,1-1.71-1.94,1.826,1.826,0,0,1,1.71-1.94,1.82,1.82,0,0,1,1.71,1.94A1.833,1.833,0,0,1,15.15,14.67Z" transform="translate(1768.994 848.59)" fill="#a353ff"/>
  </g>
</svg>
