<svg xmlns="http://www.w3.org/2000/svg" width="21.5" height="18.5" viewBox="0 0 21.5 18.5">
  <g id="email" transform="translate(-1.25 -2.75)">
    <g id="email-2" data-name="email">
      <path id="Subtract" d="M7,2.75A5.916,5.916,0,0,0,2.865,4.138,5.7,5.7,0,0,0,1.25,8.5v7a5.7,5.7,0,0,0,1.615,4.362A5.916,5.916,0,0,0,7,21.25H17a5.916,5.916,0,0,0,4.135-1.388A5.7,5.7,0,0,0,22.75,15.5v-7a5.7,5.7,0,0,0-1.615-4.362A5.916,5.916,0,0,0,17,2.75ZM19.229,8.362a.75.75,0,0,0-.917-1.187l-5.547,4.286a1.25,1.25,0,0,1-1.529,0L5.689,7.175a.75.75,0,1,0-.917,1.187l5.547,4.286a2.75,2.75,0,0,0,3.363,0Z" fill="#a353ff" fill-rule="evenodd"/>
    </g>
  </g>
</svg>
