<svg xmlns="http://www.w3.org/2000/svg" width="1608" height="295" viewBox="0 0 1608 295">
  <path id="fukuro_base_white" d="M12.76-222.989H218.552v60.937H76.515v52.059H193.937v60.937H76.515V60.712H12.76ZM372.694,65.958q-28.246,0-51.448-10.291A130.842,130.842,0,0,1,281.3,28.629,119,119,0,0,1,255.473-9.709,113.964,113.964,0,0,1,246.394-54.3V-222.989h64.159V-54.3a57.115,57.115,0,0,0,4.64,22.6,62.628,62.628,0,0,0,12.912,19.371A62.208,62.208,0,0,0,347.878,1.187a61.09,61.09,0,0,0,24.816,5.044,60.683,60.683,0,0,0,25.018-5.044,64.622,64.622,0,0,0,19.57-13.317A60.21,60.21,0,0,0,430.194-31.3a58.1,58.1,0,0,0,4.64-23V-222.989h64.159V-54.3a113.963,113.963,0,0,1-9.079,44.593,120.6,120.6,0,0,1-25.623,38.338,127.661,127.661,0,0,1-39.948,27.038Q400.94,65.958,372.694,65.958Zm158.581-5.246v-283.3h64.159v116.628h20.579q35.509,0,52.86-15.94T687.031-168.1q.4-12.107,0-24.213t-.4-23.81v-6.86h64.562V-168.1a116.2,116.2,0,0,1-9.281,46.005q-9.281,21.792-28.649,39.145,25.825,16.949,38.334,41.768A115.441,115.441,0,0,1,764.1,11.478V60.712H699.943V11.478q0-29.863-18.36-45.2T628.925-49.056H595.433V60.712Zm383.338,5.246q-28.246,0-51.448-10.291a130.843,130.843,0,0,1-39.948-27.038A119,119,0,0,1,797.391-9.709,113.963,113.963,0,0,1,788.312-54.3V-222.989h64.158V-54.3a57.115,57.115,0,0,0,4.641,22.6,62.628,62.628,0,0,0,12.912,19.371A62.206,62.206,0,0,0,889.8,1.187a61.089,61.089,0,0,0,24.816,5.044A60.683,60.683,0,0,0,939.63,1.187,64.62,64.62,0,0,0,959.2-12.13,60.21,60.21,0,0,0,972.113-31.3a58.1,58.1,0,0,0,4.64-23V-222.989h64.159V-54.3a113.965,113.965,0,0,1-9.079,44.593,120.609,120.609,0,0,1-25.623,38.338,127.663,127.663,0,0,1-39.948,27.038Q942.858,65.958,914.612,65.958Zm158.581-288.947h112.984q24.211,0,44.386,8.878a112.645,112.645,0,0,1,34.7,23.406,103.635,103.635,0,0,1,22.4,33.092,97.309,97.309,0,0,1,7.869,38.338,91.909,91.909,0,0,1-6.053,32.89,98.8,98.8,0,0,1-16.948,28.854,103.992,103.992,0,0,1-26.43,22.2,105.249,105.249,0,0,1-34.9,12.914A59.949,59.949,0,0,0,1227.738-8.7a79.087,79.087,0,0,0,18.36,7.264,95.356,95.356,0,0,0,19.974,2.825q10.491.4,21.386.4h8.07V60.712h-24.614a161.825,161.825,0,0,1-40.553-5.044,165.569,165.569,0,0,1-36.921-14.326,169.927,169.927,0,0,1-31.878-21.994A138.027,138.027,0,0,1,1136.948-8.7V60.712h-63.755ZM1186.176-80.937q19.772,0,32.483-10.694t12.711-27.644a40.5,40.5,0,0,0-3.43-16.344,42.5,42.5,0,0,0-9.483-13.721,45.37,45.37,0,0,0-14.325-9.282,46.414,46.414,0,0,0-17.956-3.43h-49.229v81.115ZM1465.811,65.554q-34.7,0-62.948-12.51a157.175,157.175,0,0,1-48.623-33.092,146.7,146.7,0,0,1-31.474-47.216,140.433,140.433,0,0,1-11.1-54.48,138.963,138.963,0,0,1,11.1-54.278,149.661,149.661,0,0,1,31.474-47.216,155.42,155.42,0,0,1,48.623-33.293q28.246-12.51,62.948-12.51t63.15,12.51a156.532,156.532,0,0,1,48.825,33.092,149.491,149.491,0,0,1,31.676,47.216,138.274,138.274,0,0,1,11.3,54.48,138.274,138.274,0,0,1-11.3,54.48,149.491,149.491,0,0,1-31.676,47.216,156.532,156.532,0,0,1-48.825,33.092Q1500.513,65.554,1465.811,65.554Zm-90.387-147.3a84.552,84.552,0,0,0,6.658,32.89,86.327,86.327,0,0,0,18.764,28.047,92.823,92.823,0,0,0,28.649,19.371,89.347,89.347,0,0,0,36.317,7.264,90.367,90.367,0,0,0,36.719-7.264,90.337,90.337,0,0,0,28.448-19.371,88.567,88.567,0,0,0,18.561-27.845,84.072,84.072,0,0,0,6.658-33.092,83.084,83.084,0,0,0-6.658-32.688,86.91,86.91,0,0,0-18.763-27.845,92.825,92.825,0,0,0-28.65-19.371,89.345,89.345,0,0,0-36.316-7.264,88.335,88.335,0,0,0-35.913,7.264,92.826,92.826,0,0,0-28.65,19.371,89.754,89.754,0,0,0-18.965,27.845A80.986,80.986,0,0,0,1375.424-81.744Z" transform="translate(-12.76 229.042)" fill="#fff"/>
</svg>
