<svg xmlns="http://www.w3.org/2000/svg" xmlns:xlink="http://www.w3.org/1999/xlink" width="312.262" height="558.381" viewBox="0 0 312.262 558.381">
  <defs>
    <linearGradient id="linear-gradient" x1="0.5" x2="0.504" y2="1.079" gradientUnits="objectBoundingBox">
      <stop offset="0" stop-color="#fff"/>
      <stop offset="1" stop-color="#b58fff"/>
    </linearGradient>
  </defs>
  <g id="fukuro_mobile_logo_outline" transform="translate(-566.5 -724.5)">
    <path id="Path_104" data-name="Path 104" d="M39.5-703.5H157.481v35.636H76.741v28.589h66.748v35.636H76.741v62.39H39.5Zm116.981,1H40.5v160.25H75.741v-62.39h66.748v-33.636H75.741v-30.589h80.74Zm37.617-1h37.471v96.379c0,16.374,13.993,33.906,34.824,33.906,19.2,0,34.824-15.21,34.824-33.906V-703.5h37.471v96.379a64.811,64.811,0,0,1-1.326,12.982,67.63,67.63,0,0,1-3.866,12.5A69.643,69.643,0,0,1,327.258-570a70.464,70.464,0,0,1-8.44,10.391,70.54,70.54,0,0,1-10.476,8.756A70.981,70.981,0,0,1,296-544.117a75.545,75.545,0,0,1-29.6,5.849,75.218,75.218,0,0,1-29.508-5.849,71.218,71.218,0,0,1-12.339-6.733,70.917,70.917,0,0,1-10.491-8.755A70.789,70.789,0,0,1,205.589-570a69.763,69.763,0,0,1-6.265-11.64,67.468,67.468,0,0,1-3.889-12.5,64.4,64.4,0,0,1-1.336-12.982Zm36.471,1H195.1v95.379c0,32.633,27.258,67.854,71.294,67.854s71.294-35.221,71.294-67.854V-702.5H302.217v95.379a34.17,34.17,0,0,1-2.655,13.213,34.928,34.928,0,0,1-7.41,11.136,34.987,34.987,0,0,1-11.336,7.69,36.812,36.812,0,0,1-14.423,2.867,35.7,35.7,0,0,1-25.674-10.73,35.778,35.778,0,0,1-7.462-11.155,33.241,33.241,0,0,1-2.688-13.022Z" transform="translate(527 1428)" fill="url(#linear-gradient)"/>
    <path id="Path_106" data-name="Path 106" d="M127.809-703.5h37.7v31.695a65.69,65.69,0,0,1-5.317,26.377,64.1,64.1,0,0,1-15.93,21.962,67.393,67.393,0,0,1,12.3,10.561,62,62,0,0,1,9.094,13.007,62.661,62.661,0,0,1,5.409,14.567,67.878,67.878,0,0,1,1.788,15.6v28.484H135.379v-28.484c0-22.182-13.787-33.906-39.87-33.906H76.971v62.39H39.5V-703.271H76.971v66.289h11.2c25.759,0,39.173-11.719,39.87-34.831,0-2.253,0-4.582.228-6.886-.209-4.2-.458-11.13-.458-20.4Zm36.7,1h-35.7v3.4c0,9.279.249,16.209.458,20.389l0,.037,0,.037c-.227,2.269-.227,4.588-.227,6.831v.015a45.934,45.934,0,0,1-2.858,15.364,29.271,29.271,0,0,1-7.687,11.257,33.218,33.218,0,0,1-12.646,6.872,61.121,61.121,0,0,1-17.679,2.315h-12.2v-66.289H40.5V-542.25H75.971v-62.39H95.509c13.11,0,23.28,2.962,30.227,8.8,7.062,5.94,10.643,14.721,10.643,26.1v27.484h35.471v-27.484c0-22.16-10.184-41.073-28.676-53.256l-.544-.358.486-.433c14-12.465,21.394-29.072,21.394-48.025Zm30.277-1h37.471v96.379c0,16.374,13.993,33.906,34.824,33.906,19.2,0,34.824-15.21,34.824-33.906V-703.5h37.471v96.379a64.809,64.809,0,0,1-1.326,12.982,67.632,67.632,0,0,1-3.866,12.5A69.646,69.646,0,0,1,327.946-570a70.464,70.464,0,0,1-8.44,10.391,70.543,70.543,0,0,1-10.476,8.756,70.982,70.982,0,0,1-12.343,6.733,75.544,75.544,0,0,1-29.6,5.849,75.218,75.218,0,0,1-29.508-5.849,71.219,71.219,0,0,1-12.339-6.733,70.916,70.916,0,0,1-10.49-8.755A70.788,70.788,0,0,1,206.277-570a69.762,69.762,0,0,1-6.265-11.64,67.468,67.468,0,0,1-3.889-12.5,64.4,64.4,0,0,1-1.336-12.982Zm36.471,1H195.787v95.379c0,32.633,27.258,67.854,71.294,67.854s71.294-35.221,71.294-67.854V-702.5H302.9v95.379a34.17,34.17,0,0,1-2.655,13.213,34.928,34.928,0,0,1-7.41,11.136,34.987,34.987,0,0,1-11.336,7.69,36.812,36.812,0,0,1-14.423,2.867,35.7,35.7,0,0,1-25.674-10.73,35.779,35.779,0,0,1-7.462-11.155,33.241,33.241,0,0,1-2.688-13.022Z" transform="translate(527 1625.033)" fill="url(#linear-gradient)"/>
    <path id="Path_107" data-name="Path 107" d="M263.182-550.056a93.39,93.39,0,0,1-27.673-4.1,86.875,86.875,0,0,1-23.358-11.265,85.53,85.53,0,0,1-18.256-16.846,83.889,83.889,0,0,1-12.372-20.846,79.185,79.185,0,0,1-4.875-15.4,78.412,78.412,0,0,1-1.587-15.755,78.417,78.417,0,0,1,1.63-15.816,82.642,82.642,0,0,1,4.745-15.264,85.706,85.706,0,0,1,7.643-14.234A86.962,86.962,0,0,1,199.4-692.316a86.879,86.879,0,0,1,12.79-10.734,86.851,86.851,0,0,1,15.039-8.263,91.042,91.042,0,0,1,35.95-7.187,91.853,91.853,0,0,1,36.02,7.154,87.637,87.637,0,0,1,15.112,8.234A87.373,87.373,0,0,1,327.188-692.4,87.058,87.058,0,0,1,337.6-679.695a85.44,85.44,0,0,1,7.717,14.238,82.2,82.2,0,0,1,4.8,15.3,78.093,78.093,0,0,1,1.65,15.883,78.093,78.093,0,0,1-1.65,15.883,82.2,82.2,0,0,1-4.8,15.3,85.437,85.437,0,0,1-7.717,14.238,87.059,87.059,0,0,1-10.409,12.709,87.377,87.377,0,0,1-12.874,10.708A87.641,87.641,0,0,1,299.2-557.21,91.853,91.853,0,0,1,263.182-550.056Zm0-167.444c-53.812,0-87.121,43.2-87.121,83.222a77.18,77.18,0,0,0,6.382,30.767l0,.008c13.09,31.86,44.781,52.446,80.736,52.446,54.1,0,87.58-43.2,87.58-83.222S317.277-717.5,263.182-717.5Zm-96.3,164.691H152.394a95.323,95.323,0,0,1-44.331-11.1,92.928,92.928,0,0,1-18.19-12.544,82.682,82.682,0,0,1-13.132-14.686v38.326H39.5v-162.25h64.725A65.047,65.047,0,0,1,129.712-710a61.5,61.5,0,0,1,19.8,13.383,61.547,61.547,0,0,1,7.361,8.974,60.323,60.323,0,0,1,5.457,10.049,57.929,57.929,0,0,1,3.392,10.79,54.907,54.907,0,0,1,1.167,11.2,53.642,53.642,0,0,1-3.426,18.84,55.946,55.946,0,0,1-9.738,16.577,58.349,58.349,0,0,1-15.244,12.753,62.445,62.445,0,0,1-19.08,7.2C131.063-587.3,146-587.3,161.8-587.3h5.087ZM75.741-594.42l.917,1.382c15.808,23.831,45.536,39.229,75.736,39.229h13.492V-586.3H161.8c-7.5,0-15.99,0-23.6-1.82a38.921,38.921,0,0,1-10.617-4.15,36.874,36.874,0,0,1-9.514-7.965l-.568-.657.853-.161c27.542-5.2,47.532-28.15,47.532-54.559,0-28.11-23.574-58.449-61.661-58.449H40.5v160.25H75.741ZM263.182-584a53.2,53.2,0,0,1-20.9-4.172,50.9,50.9,0,0,1-16.414-11.144,51.281,51.281,0,0,1-6.148-7.541,50.758,50.758,0,0,1-4.577-8.511,48.6,48.6,0,0,1-3.842-18.906,48.033,48.033,0,0,1,3.939-18.774,51.309,51.309,0,0,1,7.591-12.317,52.7,52.7,0,0,1,10.909-9.921,52.1,52.1,0,0,1,29.441-9.032,53.257,53.257,0,0,1,20.9,4.168,51,51,0,0,1,16.414,11.119,51.277,51.277,0,0,1,6.148,7.514,50.57,50.57,0,0,1,4.577,8.47,48.039,48.039,0,0,1,3.842,18.774,49.222,49.222,0,0,1-3.809,19,50.149,50.149,0,0,1-10.671,16.043,50.4,50.4,0,0,1-16.4,11.091A53.832,53.832,0,0,1,263.182-584Zm0-99.319a51.153,51.153,0,0,0-47.022,30.665,47.033,47.033,0,0,0-3.858,18.38c0,27.17,22.825,49.274,50.88,49.274,28.531,0,50.88-21.644,50.88-49.274C314.062-661.322,291.237-683.323,263.182-683.323Zm-158.957,50H75.741v-47.1h28.484a26.659,26.659,0,0,1,18.7,7.395,24.732,24.732,0,0,1,5.5,7.9,23.662,23.662,0,0,1,1.991,9.515,21.065,21.065,0,0,1-1.965,9.036,20.736,20.736,0,0,1-5.467,7.058,25.166,25.166,0,0,1-8.3,4.572A32.934,32.934,0,0,1,104.225-633.319Zm-27.484-1h27.484c14.831,0,25.19-8.755,25.19-21.291,0-13.131-11.3-23.814-25.19-23.814H76.741Z" transform="translate(527 1832.937)" fill="url(#linear-gradient)"/>
    <path id="Path_105" data-name="Path 105" d="M39.5-703.5H157.481v35.636H76.741v28.589h66.748v35.636H76.741v62.39H39.5Zm116.981,1H40.5v160.25H75.741v-62.39h66.748v-33.636H75.741v-30.589h80.74Zm37.617-1h37.471v96.379c0,16.374,13.993,33.906,34.824,33.906,19.2,0,34.824-15.21,34.824-33.906V-703.5h37.471v96.379a64.811,64.811,0,0,1-1.326,12.982,67.63,67.63,0,0,1-3.866,12.5A69.643,69.643,0,0,1,327.258-570a70.464,70.464,0,0,1-8.44,10.391,70.54,70.54,0,0,1-10.476,8.756A70.981,70.981,0,0,1,296-544.117a75.545,75.545,0,0,1-29.6,5.849,75.218,75.218,0,0,1-29.508-5.849,71.218,71.218,0,0,1-12.339-6.733,70.917,70.917,0,0,1-10.491-8.755A70.789,70.789,0,0,1,205.589-570a69.763,69.763,0,0,1-6.265-11.64,67.468,67.468,0,0,1-3.889-12.5,64.4,64.4,0,0,1-1.336-12.982Zm36.471,1H195.1v95.379c0,32.633,27.258,67.854,71.294,67.854s71.294-35.221,71.294-67.854V-702.5H302.217v95.379a34.17,34.17,0,0,1-2.655,13.213,34.928,34.928,0,0,1-7.41,11.136,34.987,34.987,0,0,1-11.336,7.69,36.812,36.812,0,0,1-14.423,2.867,35.7,35.7,0,0,1-25.674-10.73,35.778,35.778,0,0,1-7.462-11.155,33.241,33.241,0,0,1-2.688-13.022Z" transform="translate(527 1428)" fill="url(#linear-gradient)"/>
    <path id="Path_108" data-name="Path 108" d="M127.809-703.5h37.7v31.695a65.69,65.69,0,0,1-5.317,26.377,64.1,64.1,0,0,1-15.93,21.962,67.393,67.393,0,0,1,12.3,10.561,62,62,0,0,1,9.094,13.007,62.661,62.661,0,0,1,5.409,14.567,67.878,67.878,0,0,1,1.788,15.6v28.484H135.379v-28.484c0-22.182-13.787-33.906-39.87-33.906H76.971v62.39H39.5V-703.271H76.971v66.289h11.2c25.759,0,39.173-11.719,39.87-34.831,0-2.253,0-4.582.228-6.886-.209-4.2-.458-11.13-.458-20.4Zm36.7,1h-35.7v3.4c0,9.279.249,16.209.458,20.389l0,.037,0,.037c-.227,2.269-.227,4.588-.227,6.831v.015a45.934,45.934,0,0,1-2.858,15.364,29.271,29.271,0,0,1-7.687,11.257,33.218,33.218,0,0,1-12.646,6.872,61.121,61.121,0,0,1-17.679,2.315h-12.2v-66.289H40.5V-542.25H75.971v-62.39H95.509c13.11,0,23.28,2.962,30.227,8.8,7.062,5.94,10.643,14.721,10.643,26.1v27.484h35.471v-27.484c0-22.16-10.184-41.073-28.676-53.256l-.544-.358.486-.433c14-12.465,21.394-29.072,21.394-48.025Zm30.277-1h37.471v96.379c0,16.374,13.993,33.906,34.824,33.906,19.2,0,34.824-15.21,34.824-33.906V-703.5h37.471v96.379a64.809,64.809,0,0,1-1.326,12.982,67.632,67.632,0,0,1-3.866,12.5A69.646,69.646,0,0,1,327.946-570a70.464,70.464,0,0,1-8.44,10.391,70.543,70.543,0,0,1-10.476,8.756,70.982,70.982,0,0,1-12.343,6.733,75.544,75.544,0,0,1-29.6,5.849,75.218,75.218,0,0,1-29.508-5.849,71.219,71.219,0,0,1-12.339-6.733,70.916,70.916,0,0,1-10.49-8.755A70.788,70.788,0,0,1,206.277-570a69.762,69.762,0,0,1-6.265-11.64,67.468,67.468,0,0,1-3.889-12.5,64.4,64.4,0,0,1-1.336-12.982Zm36.471,1H195.787v95.379c0,32.633,27.258,67.854,71.294,67.854s71.294-35.221,71.294-67.854V-702.5H302.9v95.379a34.17,34.17,0,0,1-2.655,13.213,34.928,34.928,0,0,1-7.41,11.136,34.987,34.987,0,0,1-11.336,7.69,36.812,36.812,0,0,1-14.423,2.867,35.7,35.7,0,0,1-25.674-10.73,35.779,35.779,0,0,1-7.462-11.155,33.241,33.241,0,0,1-2.688-13.022Z" transform="translate(527 1625.033)" fill="url(#linear-gradient)"/>
    <path id="Path_109" data-name="Path 109" d="M263.182-550.056a93.39,93.39,0,0,1-27.673-4.1,86.875,86.875,0,0,1-23.358-11.265,85.53,85.53,0,0,1-18.256-16.846,83.889,83.889,0,0,1-12.372-20.846,79.185,79.185,0,0,1-4.875-15.4,78.412,78.412,0,0,1-1.587-15.755,78.417,78.417,0,0,1,1.63-15.816,82.642,82.642,0,0,1,4.745-15.264,85.706,85.706,0,0,1,7.643-14.234A86.962,86.962,0,0,1,199.4-692.316a86.879,86.879,0,0,1,12.79-10.734,86.851,86.851,0,0,1,15.039-8.263,91.042,91.042,0,0,1,35.95-7.187,91.853,91.853,0,0,1,36.02,7.154,87.637,87.637,0,0,1,15.112,8.234A87.373,87.373,0,0,1,327.188-692.4,87.058,87.058,0,0,1,337.6-679.695a85.44,85.44,0,0,1,7.717,14.238,82.2,82.2,0,0,1,4.8,15.3,78.093,78.093,0,0,1,1.65,15.883,78.093,78.093,0,0,1-1.65,15.883,82.2,82.2,0,0,1-4.8,15.3,85.437,85.437,0,0,1-7.717,14.238,87.059,87.059,0,0,1-10.409,12.709,87.377,87.377,0,0,1-12.874,10.708A87.641,87.641,0,0,1,299.2-557.21,91.853,91.853,0,0,1,263.182-550.056Zm0-167.444c-53.812,0-87.121,43.2-87.121,83.222a77.18,77.18,0,0,0,6.382,30.767l0,.008c13.09,31.86,44.781,52.446,80.736,52.446,54.1,0,87.58-43.2,87.58-83.222S317.277-717.5,263.182-717.5Zm-96.3,164.691H152.394a95.323,95.323,0,0,1-44.331-11.1,92.928,92.928,0,0,1-18.19-12.544,82.682,82.682,0,0,1-13.132-14.686v38.326H39.5v-162.25h64.725A65.047,65.047,0,0,1,129.712-710a61.5,61.5,0,0,1,19.8,13.383,61.547,61.547,0,0,1,7.361,8.974,60.323,60.323,0,0,1,5.457,10.049,57.929,57.929,0,0,1,3.392,10.79,54.907,54.907,0,0,1,1.167,11.2,53.642,53.642,0,0,1-3.426,18.84,55.946,55.946,0,0,1-9.738,16.577,58.349,58.349,0,0,1-15.244,12.753,62.445,62.445,0,0,1-19.08,7.2C131.063-587.3,146-587.3,161.8-587.3h5.087ZM75.741-594.42l.917,1.382c15.808,23.831,45.536,39.229,75.736,39.229h13.492V-586.3H161.8c-7.5,0-15.99,0-23.6-1.82a38.921,38.921,0,0,1-10.617-4.15,36.874,36.874,0,0,1-9.514-7.965l-.568-.657.853-.161c27.542-5.2,47.532-28.15,47.532-54.559,0-28.11-23.574-58.449-61.661-58.449H40.5v160.25H75.741ZM263.182-584a53.2,53.2,0,0,1-20.9-4.172,50.9,50.9,0,0,1-16.414-11.144,51.281,51.281,0,0,1-6.148-7.541,50.758,50.758,0,0,1-4.577-8.511,48.6,48.6,0,0,1-3.842-18.906,48.033,48.033,0,0,1,3.939-18.774,51.309,51.309,0,0,1,7.591-12.317,52.7,52.7,0,0,1,10.909-9.921,52.1,52.1,0,0,1,29.441-9.032,53.257,53.257,0,0,1,20.9,4.168,51,51,0,0,1,16.414,11.119,51.277,51.277,0,0,1,6.148,7.514,50.57,50.57,0,0,1,4.577,8.47,48.039,48.039,0,0,1,3.842,18.774,49.222,49.222,0,0,1-3.809,19,50.149,50.149,0,0,1-10.671,16.043,50.4,50.4,0,0,1-16.4,11.091A53.832,53.832,0,0,1,263.182-584Zm0-99.319a51.153,51.153,0,0,0-47.022,30.665,47.033,47.033,0,0,0-3.858,18.38c0,27.17,22.825,49.274,50.88,49.274,28.531,0,50.88-21.644,50.88-49.274C314.062-661.322,291.237-683.323,263.182-683.323Zm-158.957,50H75.741v-47.1h28.484a26.659,26.659,0,0,1,18.7,7.395,24.732,24.732,0,0,1,5.5,7.9,23.662,23.662,0,0,1,1.991,9.515,21.065,21.065,0,0,1-1.965,9.036,20.736,20.736,0,0,1-5.467,7.058,25.166,25.166,0,0,1-8.3,4.572A32.934,32.934,0,0,1,104.225-633.319Zm-27.484-1h27.484c14.831,0,25.19-8.755,25.19-21.291,0-13.131-11.3-23.814-25.19-23.814H76.741Z" transform="translate(527 1832.937)" fill="url(#linear-gradient)"/>
  </g>
</svg>
