<svg xmlns="http://www.w3.org/2000/svg" xmlns:xlink="http://www.w3.org/1999/xlink" width="1609" height="296" viewBox="0 0 1609 296">
  <defs>
    <linearGradient id="linear-gradient" x1="0.5" x2="0.504" y2="1.079" gradientUnits="objectBoundingBox">
      <stop offset="0" stop-color="#fff"/>
      <stop offset="1" stop-color="#b58fff"/>
    </linearGradient>
  </defs>
  <path id="fukuro_outline" d="M1465.811-229.542a171.53,171.53,0,0,1,33.236,3.137,144.816,144.816,0,0,1,30.115,9.415,167.57,167.57,0,0,1,26.509,14.572,150.464,150.464,0,0,1,22.47,18.626,151.847,151.847,0,0,1,18.168,22.168,151.583,151.583,0,0,1,13.613,25.2,144.641,144.641,0,0,1,8.5,27.031,136.421,136.421,0,0,1,2.835,27.644,136.42,136.42,0,0,1-2.835,27.644,144.647,144.647,0,0,1-8.5,27.031,151.59,151.59,0,0,1-13.613,25.2A151.855,151.855,0,0,1,1578.141,20.3a150.46,150.46,0,0,1-22.47,18.626A167.576,167.576,0,0,1,1529.162,53.5a144.816,144.816,0,0,1-30.115,9.415,171.53,171.53,0,0,1-33.236,3.137,170.774,170.774,0,0,1-33.186-3.137A142.837,142.837,0,0,1,1402.66,53.5,167.515,167.515,0,0,1,1376.3,38.93,151.766,151.766,0,0,1,1353.884,20.3a149.339,149.339,0,0,1-18.118-22.169A148.526,148.526,0,0,1,1322.3-27.071a146.565,146.565,0,0,1-8.351-27.03,138.782,138.782,0,0,1-2.784-27.643,138.035,138.035,0,0,1,2.784-27.592,144.326,144.326,0,0,1,8.351-26.88,150.123,150.123,0,0,1,13.462-25.1,153.642,153.642,0,0,1,18.116-22.268,150.656,150.656,0,0,1,22.419-18.778,165.022,165.022,0,0,1,26.359-14.623,142.836,142.836,0,0,1,29.965-9.416A170.773,170.773,0,0,1,1465.811-229.542Zm0,294.6a170.525,170.525,0,0,0,33.041-3.118,143.8,143.8,0,0,0,29.907-9.35A166.545,166.545,0,0,0,1555.11,38.1a149.452,149.452,0,0,0,22.32-18.5,150.848,150.848,0,0,0,18.048-22.021A150.6,150.6,0,0,0,1609-27.459a143.671,143.671,0,0,0,8.445-26.844,135.409,135.409,0,0,0,2.814-27.441,135.405,135.405,0,0,0-2.814-27.441A143.662,143.662,0,0,0,1609-136.029a150.6,150.6,0,0,0-13.523-25.038,150.847,150.847,0,0,0-18.048-22.021,149.464,149.464,0,0,0-22.32-18.5,166.548,166.548,0,0,0-26.351-14.484,143.8,143.8,0,0,0-29.907-9.35,170.527,170.527,0,0,0-33.041-3.118,169.765,169.765,0,0,0-32.991,3.118,141.843,141.843,0,0,0-29.755,9.35,164.013,164.013,0,0,0-26.2,14.534,149.678,149.678,0,0,0-22.27,18.652,152.641,152.641,0,0,0-18,22.123,149.125,149.125,0,0,0-13.372,24.937,143.335,143.335,0,0,0-8.294,26.693,137.042,137.042,0,0,0-2.764,27.392,137.795,137.795,0,0,0,2.764,27.443,145.557,145.557,0,0,0,8.294,26.845A147.509,147.509,0,0,0,1336.6-2.419a148.35,148.35,0,0,0,18,22.02,150.774,150.774,0,0,0,22.271,18.5,166.472,166.472,0,0,0,26.2,14.484,141.842,141.842,0,0,0,29.755,9.35A169.763,169.763,0,0,0,1465.811,65.055ZM12.26-223.489H219.051v61.937H77.015v51.059H194.437v61.937H77.015V61.212H12.26Zm205.792,1H13.26v282.7H76.015V-49.555H193.437v-59.937H76.015v-53.059H218.052Zm27.842-1h65.159V-54.3a56.8,56.8,0,0,0,1.15,11.4,57.85,57.85,0,0,0,3.45,11,62.84,62.84,0,0,0,5.5,10.209,62.832,62.832,0,0,0,7.306,9.008,59.661,59.661,0,0,0,9,7.553A65.306,65.306,0,0,0,348.078.73a58.643,58.643,0,0,0,11.853,3.751,64.219,64.219,0,0,0,12.762,1.251A66.03,66.03,0,0,0,385.709,4.48a56.245,56.245,0,0,0,11.8-3.75,67.7,67.7,0,0,0,10.464-5.808,62.089,62.089,0,0,0,8.956-7.406,59.852,59.852,0,0,0,7.3-8.854,60.977,60.977,0,0,0,5.5-10.157,57.335,57.335,0,0,0,3.45-11.1,59.315,59.315,0,0,0,1.15-11.705V-223.489h65.159V-54.3a114.265,114.265,0,0,1-2.28,22.749,117.468,117.468,0,0,1-6.838,22.037,122.03,122.03,0,0,1-10.99,20.464,122.977,122.977,0,0,1-14.738,18.032,121.675,121.675,0,0,1-18.334,15.2,138.029,138.029,0,0,1-21.768,11.949,119.51,119.51,0,0,1-24.718,7.75,139.25,139.25,0,0,1-27.133,2.582,138.478,138.478,0,0,1-27.083-2.582,117.514,117.514,0,0,1-24.568-7.751,139.961,139.961,0,0,1-21.666-11.948,125.936,125.936,0,0,1-18.433-15.194,121.943,121.943,0,0,1-14.89-18.033A119.9,119.9,0,0,1,255.012-9.515a117.466,117.466,0,0,1-6.838-22.037,114.283,114.283,0,0,1-2.28-22.749Zm64.159,1H246.894V-54.3a113.276,113.276,0,0,0,2.26,22.55A116.467,116.467,0,0,0,255.934-9.9a118.884,118.884,0,0,0,10.95,20.294,120.924,120.924,0,0,0,14.768,17.884,124.917,124.917,0,0,0,18.287,15.073,138.967,138.967,0,0,0,21.511,11.862A116.512,116.512,0,0,0,345.807,62.9a137.488,137.488,0,0,0,26.887,2.563A138.266,138.266,0,0,0,399.632,62.9a118.5,118.5,0,0,0,24.511-7.685,137,137,0,0,0,21.61-11.861,120.656,120.656,0,0,0,18.184-15.071,121.983,121.983,0,0,0,14.618-17.885,121.033,121.033,0,0,0,10.9-20.3,116.493,116.493,0,0,0,6.78-21.849,113.277,113.277,0,0,0,2.26-22.55V-222.489H435.335V-54.3a60.313,60.313,0,0,1-1.17,11.9,58.334,58.334,0,0,1-3.51,11.3,61.988,61.988,0,0,1-5.593,10.324,60.857,60.857,0,0,1-7.425,9,63.091,63.091,0,0,1-9.1,7.526,68.7,68.7,0,0,1-10.619,5.895,57.262,57.262,0,0,1-12.009,3.817,67.037,67.037,0,0,1-13.213,1.271,65.212,65.212,0,0,1-12.961-1.271,59.626,59.626,0,0,1-12.055-3.816A66.3,66.3,0,0,1,336.9-4.3a60.67,60.67,0,0,1-9.155-7.681,63.817,63.817,0,0,1-7.422-9.152,63.825,63.825,0,0,1-5.592-10.372,58.856,58.856,0,0,1-3.51-11.193,57.8,57.8,0,0,1-1.17-11.6Zm376.074-1h65.562V-168.1a120.141,120.141,0,0,1-2.33,23.707,116.163,116.163,0,0,1-6.991,22.494,104.785,104.785,0,0,1-11.859,20.781,120.671,120.671,0,0,1-16.435,18.106,119.532,119.532,0,0,1,22.049,18.64,101.661,101.661,0,0,1,15.916,22.964,117.519,117.519,0,0,1,9.422,25.685,117.863,117.863,0,0,1,3.141,27.2V61.212H699.443V11.478A81.25,81.25,0,0,0,698.3-2.459a59.461,59.461,0,0,0-3.413-12.106,48.713,48.713,0,0,0-5.679-10.286,47.235,47.235,0,0,0-7.948-8.486,54.99,54.99,0,0,0-10.084-6.648A67.981,67.981,0,0,0,659.1-44.742a108.678,108.678,0,0,0-30.174-3.814H595.933V61.212H530.775v-284.3h65.158v116.628h20.079a130.573,130.573,0,0,0,16.556-.992,88.989,88.989,0,0,0,14.269-2.972,62.988,62.988,0,0,0,11.985-4.941,49.2,49.2,0,0,0,9.712-6.9,49.987,49.987,0,0,0,7.566-8.778,54.224,54.224,0,0,0,5.522-10.559,67.482,67.482,0,0,0,3.479-12.355,91.526,91.526,0,0,0,1.429-14.16c.267-8.026.267-16.161,0-24.183s-.4-16.051-.4-23.826Zm64.562,1H687.127v6.361c0,7.764.136,15.769.4,23.793.268,8.044.268,16.2,0,24.247a92.507,92.507,0,0,1-1.446,14.312,68.478,68.478,0,0,1-3.532,12.539,55.23,55.23,0,0,1-5.625,10.754,50.975,50.975,0,0,1-7.717,8.954,50.2,50.2,0,0,1-9.909,7.045,64,64,0,0,1-12.175,5.021,90.02,90.02,0,0,1-14.43,3.006,131.576,131.576,0,0,1-16.684,1H594.933V-222.085H531.774v282.3h63.159V-49.555h33.992a130.014,130.014,0,0,1,16.216.962A92.764,92.764,0,0,1,659.378-45.7a68.979,68.979,0,0,1,12.258,4.828A56.016,56.016,0,0,1,681.9-34.1a48.241,48.241,0,0,1,8.116,8.666,49.709,49.709,0,0,1,5.8,10.5,60.465,60.465,0,0,1,3.472,12.309,82.25,82.25,0,0,1,1.155,14.11V60.212H763.6V11.478A116.865,116.865,0,0,0,760.488-15.5a116.532,116.532,0,0,0-9.342-25.466A100.668,100.668,0,0,0,735.386-63.7a118.849,118.849,0,0,0-22.4-18.837l-.543-.357.484-.434A119.969,119.969,0,0,0,729.7-101.712,103.786,103.786,0,0,0,741.448-122.3a115.165,115.165,0,0,0,6.93-22.3,119.15,119.15,0,0,0,2.31-23.509Zm37.123-1h65.158V-54.3a56.807,56.807,0,0,0,1.15,11.4,57.847,57.847,0,0,0,3.451,11,62.847,62.847,0,0,0,5.5,10.209,62.845,62.845,0,0,0,7.306,9.008,59.65,59.65,0,0,0,9,7.553A65.319,65.319,0,0,0,890,.73,58.633,58.633,0,0,0,901.85,4.481a64.221,64.221,0,0,0,12.762,1.251A66.026,66.026,0,0,0,927.627,4.48a56.238,56.238,0,0,0,11.8-3.75A67.691,67.691,0,0,0,949.89-5.078a62.083,62.083,0,0,0,8.956-7.406,59.832,59.832,0,0,0,7.3-8.854,61,61,0,0,0,5.5-10.157,57.331,57.331,0,0,0,3.45-11.1,59.335,59.335,0,0,0,1.15-11.705V-223.489h65.159V-54.3a114.277,114.277,0,0,1-2.28,22.749,117.481,117.481,0,0,1-6.838,22.037A122.051,122.051,0,0,1,1021.3,10.949a122.993,122.993,0,0,1-14.738,18.032,121.651,121.651,0,0,1-18.334,15.2,138.022,138.022,0,0,1-21.768,11.949,119.511,119.511,0,0,1-24.718,7.75,139.248,139.248,0,0,1-27.133,2.582,138.482,138.482,0,0,1-27.083-2.582,117.516,117.516,0,0,1-24.568-7.751A139.99,139.99,0,0,1,841.3,44.177a125.937,125.937,0,0,1-18.433-15.194,121.965,121.965,0,0,1-14.89-18.033A119.9,119.9,0,0,1,796.931-9.515a117.454,117.454,0,0,1-6.838-22.037,114.281,114.281,0,0,1-2.28-22.749Zm64.158,1H788.812V-54.3a113.274,113.274,0,0,0,2.26,22.55A116.465,116.465,0,0,0,797.852-9.9,118.881,118.881,0,0,0,808.8,10.391,120.945,120.945,0,0,0,823.57,28.276a124.911,124.911,0,0,0,18.287,15.073,138.993,138.993,0,0,0,21.51,11.862A116.519,116.519,0,0,0,887.725,62.9a137.49,137.49,0,0,0,26.887,2.563A138.262,138.262,0,0,0,941.55,62.9,118.5,118.5,0,0,0,966.06,55.21a137.011,137.011,0,0,0,21.61-11.861,120.674,120.674,0,0,0,18.184-15.071,121.98,121.98,0,0,0,14.618-17.885,121.049,121.049,0,0,0,10.9-20.3,116.487,116.487,0,0,0,6.78-21.849,113.271,113.271,0,0,0,2.26-22.55V-222.489H977.253V-54.3a60.327,60.327,0,0,1-1.17,11.9,58.334,58.334,0,0,1-3.51,11.3,62,62,0,0,1-5.594,10.324,60.834,60.834,0,0,1-7.425,9,63.1,63.1,0,0,1-9.1,7.526,68.7,68.7,0,0,1-10.619,5.895,57.257,57.257,0,0,1-12.009,3.817,67.034,67.034,0,0,1-13.213,1.271A65.216,65.216,0,0,1,901.65,5.461,59.622,59.622,0,0,1,889.6,1.645,66.325,66.325,0,0,1,878.82-4.3a60.655,60.655,0,0,1-9.155-7.681,63.816,63.816,0,0,1-7.422-9.152,63.832,63.832,0,0,1-5.592-10.372,58.863,58.863,0,0,1-3.51-11.193,57.806,57.806,0,0,1-1.17-11.6Zm220.722-1h113.484a119.115,119.115,0,0,1,23.3,2.229,103.154,103.154,0,0,1,21.288,6.691,120.723,120.723,0,0,1,18.842,10.334,108.416,108.416,0,0,1,16.013,13.176,106.886,106.886,0,0,1,12.922,15.61,103.858,103.858,0,0,1,9.579,17.64,100.5,100.5,0,0,1,5.931,18.961,97.562,97.562,0,0,1,1.977,19.572,93,93,0,0,1-1.521,16.788,93.849,93.849,0,0,1-4.564,16.28,101.019,101.019,0,0,1-7.3,15.259,99.579,99.579,0,0,1-9.733,13.74,100.143,100.143,0,0,1-12.116,12.066,111.158,111.158,0,0,1-14.44,10.236A100.119,100.119,0,0,1,1229.778-27a113.579,113.579,0,0,1-17.634,4.9,59.207,59.207,0,0,0,15.833,12.955,78.951,78.951,0,0,0,18.244,7.219,95.3,95.3,0,0,0,19.87,2.81c6.957.268,14.146.4,21.367.4h8.57V61.212h-25.114a168.259,168.259,0,0,1-20.691-1.265,158.986,158.986,0,0,1-19.987-3.8,170.748,170.748,0,0,1-19.072-6.122,163.931,163.931,0,0,1-17.96-8.248,174.128,174.128,0,0,1-16.693-10.169,169.1,169.1,0,0,1-15.278-11.89,145.059,145.059,0,0,1-13.464-13.414,134.82,134.82,0,0,1-10.322-13.359V61.212h-64.755ZM1295.028,2.293h-7.57c-7.234,0-14.436-.136-21.405-.4a96.278,96.278,0,0,1-20.078-2.84A79.951,79.951,0,0,1,1227.5-8.261a60.722,60.722,0,0,1-16.683-13.833l-.568-.658.854-.16a112.987,112.987,0,0,0,18.329-5.022,99.118,99.118,0,0,0,16.411-7.83,110.149,110.149,0,0,0,14.31-10.144,99.126,99.126,0,0,0,11.994-11.945,98.6,98.6,0,0,0,9.635-13.6,100,100,0,0,0,7.227-15.108,92.816,92.816,0,0,0,4.515-16.106,91.985,91.985,0,0,0,1.505-16.607,96.552,96.552,0,0,0-1.957-19.371,99.491,99.491,0,0,0-5.872-18.772,102.84,102.84,0,0,0-9.487-17.47,105.871,105.871,0,0,0-12.8-15.464,107.387,107.387,0,0,0-15.865-13.055,119.713,119.713,0,0,0-18.685-10.248,102.16,102.16,0,0,0-21.081-6.626,118.125,118.125,0,0,0-23.1-2.21H1073.693v282.7h62.755V-10.37l.918,1.395A133.4,133.4,0,0,0,1148.521,5.65a144.08,144.08,0,0,0,13.37,13.321,168.238,168.238,0,0,0,15.187,11.819,173.238,173.238,0,0,0,16.6,10.11,162.967,162.967,0,0,0,17.851,8.2,169.712,169.712,0,0,0,18.96,6.086,157.984,157.984,0,0,0,19.86,3.771,167.24,167.24,0,0,0,20.568,1.257h24.114Zm170.782-171.7a97.446,97.446,0,0,1,19.063,1.826,84.89,84.89,0,0,1,17.454,5.48,98.3,98.3,0,0,1,15.513,8.518,90.554,90.554,0,0,1,13.289,10.957,88.544,88.544,0,0,1,10.8,13.089A88.309,88.309,0,0,1,1550-114.627a85.155,85.155,0,0,1,5.023,16.136,84.091,84.091,0,0,1,1.675,16.747,86.615,86.615,0,0,1-1.674,17.048A84.605,84.605,0,0,1,1550-48.457a90.521,90.521,0,0,1-8.014,14.913,89.627,89.627,0,0,1-10.652,13.088A87.606,87.606,0,0,1,1518.2-9.5a96.338,96.338,0,0,1-15.465,8.519A84.521,84.521,0,0,1,1485.176,4.5a100.078,100.078,0,0,1-19.365,1.826A97.453,97.453,0,0,1,1446.747,4.5a84.894,84.894,0,0,1-17.454-5.48A98.331,98.331,0,0,1,1413.78-9.5a90.572,90.572,0,0,1-13.288-10.957,87.271,87.271,0,0,1-10.806-13.141,88.452,88.452,0,0,1-8.066-15.067,87.332,87.332,0,0,1-5.022-16.286,84.837,84.837,0,0,1-1.674-16.8,81.719,81.719,0,0,1,1.725-16.749,83.348,83.348,0,0,1,5.176-16.138,91.466,91.466,0,0,1,8.216-14.912,91.093,91.093,0,0,1,10.854-13.087,90.575,90.575,0,0,1,13.289-10.957,98.332,98.332,0,0,1,15.513-8.518,85.286,85.286,0,0,1,17.352-5.48A94.87,94.87,0,0,1,1465.811-169.412Zm0,174.74a99.075,99.075,0,0,0,19.171-1.807,83.539,83.539,0,0,0,17.348-5.415,95.329,95.329,0,0,0,15.3-8.43,86.592,86.592,0,0,0,12.989-10.833A88.633,88.633,0,0,0,1541.154-34.1a89.542,89.542,0,0,0,7.925-14.748,83.626,83.626,0,0,0,4.964-16.046,85.615,85.615,0,0,0,1.655-16.851,83.074,83.074,0,0,0-1.655-16.547,84.135,84.135,0,0,0-4.964-15.946,87.32,87.32,0,0,0-7.974-14.746,87.54,87.54,0,0,0-10.683-12.94,89.535,89.535,0,0,0-13.141-10.835,97.326,97.326,0,0,0-15.355-8.431,83.9,83.9,0,0,0-17.248-5.415,96.452,96.452,0,0,0-18.867-1.806,93.856,93.856,0,0,0-18.563,1.806,84.279,84.279,0,0,0-17.148,5.416,97.3,97.3,0,0,0-15.355,8.431,89.557,89.557,0,0,0-13.142,10.836,90.063,90.063,0,0,0-10.734,12.943,90.46,90.46,0,0,0-8.126,14.749,82.323,82.323,0,0,0-5.114,15.944,80.709,80.709,0,0,0-1.7,16.544,83.851,83.851,0,0,0,1.654,16.6,86.345,86.345,0,0,0,4.965,16.1,87.461,87.461,0,0,0,7.974,14.9A86.252,86.252,0,0,0,1401.2-21.16a89.557,89.557,0,0,0,13.142,10.836A97.309,97.309,0,0,0,1429.7-1.894a83.893,83.893,0,0,0,17.248,5.415A96.456,96.456,0,0,0,1465.811,5.328Zm-329.363-167.88h49.728a47.122,47.122,0,0,1,18.148,3.469,46.07,46.07,0,0,1,14.48,9.384,43.2,43.2,0,0,1,9.593,13.88,41.182,41.182,0,0,1,3.471,16.544,37.059,37.059,0,0,1-3.223,15.594,35.832,35.832,0,0,1-9.666,12.432,43.965,43.965,0,0,1-14.641,8.113,58.114,58.114,0,0,1-18.163,2.7h-49.728Zm49.728,81.115a57.119,57.119,0,0,0,17.851-2.649,42.97,42.97,0,0,0,14.31-7.928,34.845,34.845,0,0,0,9.4-12.084,36.068,36.068,0,0,0,3.132-15.177,40.186,40.186,0,0,0-3.388-16.144,42.2,42.2,0,0,0-9.372-13.561,45.079,45.079,0,0,0-14.168-9.179,46.132,46.132,0,0,0-17.765-3.392h-48.728v80.115Z" transform="translate(-12.26 229.542)" fill="url(#linear-gradient)"/>
</svg>
