<svg xmlns="http://www.w3.org/2000/svg" width="311.262" height="557.381" viewBox="0 0 311.262 557.381">
  <g id="fukuro_mobile_logo" transform="translate(-567 -725)">
    <path id="Path_104" data-name="Path 104" d="M40-703v161.25H76.241v-62.39h66.748v-34.636H76.241v-29.589h80.74V-703Zm154.6,0v95.879c0,34.636,28.9,68.354,71.794,68.354,43.122,0,71.794-33.718,71.794-68.354V-703H301.717v95.879c0,18.121-14.68,34.406-35.324,34.406-20.414,0-35.324-16.744-35.324-34.406V-703Z" transform="translate(527 1428)" fill="#fff"/>
    <path id="Path_106" data-name="Path 106" d="M40-702.771V-541.75H76.471v-62.39H95.509c25.919,0,40.37,11.7,40.37,34.406v27.984h36.471v-27.984c0-21.1-9.4-40.829-28.9-53.674,14.68-13.074,21.561-30.048,21.561-48.4V-703h-36.7v3.9c0,8.946.229,15.827.459,20.414-.229,2.294-.229,4.588-.229,6.881-.688,22.938-13.533,35.324-40.37,35.324h-11.7v-66.289ZM195.287-703v95.879c0,34.636,28.9,68.354,71.794,68.354,43.122,0,71.794-33.718,71.794-68.354V-703H302.4v95.879c0,18.121-14.68,34.406-35.324,34.406-20.414,0-35.324-16.744-35.324-34.406V-703Z" transform="translate(527 1625.033)" fill="#fff"/>
    <path id="Path_107" data-name="Path 107" d="M40-553.309H76.241v-39.452c15.368,23.167,44.728,39.452,76.152,39.452h13.992V-586.8H161.8c-16.515,0-31.654-.229-43.352-13.763,29.131-5.505,47.939-29.36,47.939-55.05,0-29.819-25.231-58.949-62.161-58.949H40ZM76.241-679.924h27.984c14.68,0,25.69,11.239,25.69,24.314,0,12.845-10.781,21.791-25.69,21.791H76.241Zm105.742,76.611c12.157,29.589,41.976,52.756,81.2,52.756,52.3,0,88.08-41.287,88.08-83.722S315.479-718,263.182-718s-87.621,41.517-87.621,83.722A77.264,77.264,0,0,0,181.983-603.313ZM215.7-652.858a51.785,51.785,0,0,1,47.481-30.966c30.048,0,51.38,23.855,51.38,49.545,0,26.149-21.1,49.774-51.38,49.774-30.048,0-51.38-23.855-51.38-49.774A47.343,47.343,0,0,1,215.7-652.858Z" transform="translate(527 1832.937)" fill="#fff"/>
    <path id="Path_105" data-name="Path 105" d="M40-703v161.25H76.241v-62.39h66.748v-34.636H76.241v-29.589h80.74V-703Zm154.6,0v95.879c0,34.636,28.9,68.354,71.794,68.354,43.122,0,71.794-33.718,71.794-68.354V-703H301.717v95.879c0,18.121-14.68,34.406-35.324,34.406-20.414,0-35.324-16.744-35.324-34.406V-703Z" transform="translate(527 1428)" fill="#fff"/>
    <path id="Path_108" data-name="Path 108" d="M40-702.771V-541.75H76.471v-62.39H95.509c25.919,0,40.37,11.7,40.37,34.406v27.984h36.471v-27.984c0-21.1-9.4-40.829-28.9-53.674,14.68-13.074,21.561-30.048,21.561-48.4V-703h-36.7v3.9c0,8.946.229,15.827.459,20.414-.229,2.294-.229,4.588-.229,6.881-.688,22.938-13.533,35.324-40.37,35.324h-11.7v-66.289ZM195.287-703v95.879c0,34.636,28.9,68.354,71.794,68.354,43.122,0,71.794-33.718,71.794-68.354V-703H302.4v95.879c0,18.121-14.68,34.406-35.324,34.406-20.414,0-35.324-16.744-35.324-34.406V-703Z" transform="translate(527 1625.033)" fill="#fff"/>
    <path id="Path_109" data-name="Path 109" d="M40-553.309H76.241v-39.452c15.368,23.167,44.728,39.452,76.152,39.452h13.992V-586.8H161.8c-16.515,0-31.654-.229-43.352-13.763,29.131-5.505,47.939-29.36,47.939-55.05,0-29.819-25.231-58.949-62.161-58.949H40ZM76.241-679.924h27.984c14.68,0,25.69,11.239,25.69,24.314,0,12.845-10.781,21.791-25.69,21.791H76.241Zm105.742,76.611c12.157,29.589,41.976,52.756,81.2,52.756,52.3,0,88.08-41.287,88.08-83.722S315.479-718,263.182-718s-87.621,41.517-87.621,83.722A77.264,77.264,0,0,0,181.983-603.313ZM215.7-652.858a51.785,51.785,0,0,1,47.481-30.966c30.048,0,51.38,23.855,51.38,49.545,0,26.149-21.1,49.774-51.38,49.774-30.048,0-51.38-23.855-51.38-49.774A47.343,47.343,0,0,1,215.7-652.858Z" transform="translate(527 1832.937)" fill="#fff"/>
    <ellipse id="Ellipse_83" data-name="Ellipse 83" cx="15.97" cy="15.237" rx="15.97" ry="15.237" transform="translate(775.23 1185.453)" fill="#fff"/>
  </g>
</svg>
