<svg xmlns="http://www.w3.org/2000/svg" width="36" height="36" viewBox="0 0 36 36">
  <g id="LinkedIn_svg" transform="translate(-1763 -791.25)">
    <circle id="Ellipse_16" data-name="Ellipse 16" cx="18" cy="18" r="18" transform="translate(1763 791.25)" fill="#40408a"/>
    <g id="linked-in-logo-of-two-letters-svgrepo-com" transform="translate(1772.867 777.374)">
      <g id="Group_52" data-name="Group 52" transform="translate(0 23.916)">
        <path id="Path_99" data-name="Path 99" d="M.553,189.636H2.768a.553.553,0,0,0,.553-.553V179.4a.553.553,0,0,0-.553-.553H.553A.553.553,0,0,0,0,179.4v9.679A.553.553,0,0,0,.553,189.636Z" transform="translate(0 -174.076)" fill="#a353ff"/>
        <path id="Path_100" data-name="Path 100" d="M.553,26.989H2.768a.553.553,0,0,0,.553-.553V24.469a.553.553,0,0,0-.553-.553H.553A.553.553,0,0,0,0,24.469v1.966A.553.553,0,0,0,.553,26.989Z" transform="translate(0 -23.916)" fill="#a353ff"/>
        <path id="Path_101" data-name="Path 101" d="M192.15,171.051a3.367,3.367,0,0,0-1.377-1.01,4.984,4.984,0,0,0-2.009-.4,4.92,4.92,0,0,0-3.781,1.7c-.206.226-.355.177-.355-.129v-.737a.553.553,0,0,0-.553-.553H182.1a.553.553,0,0,0-.553.553v9.679a.553.553,0,0,0,.553.553h2.214a.553.553,0,0,0,.553-.553v-3.366a10.83,10.83,0,0,1,.254-2.884,2.381,2.381,0,0,1,.94-1.253,2.663,2.663,0,0,1,1.548-.473,1.976,1.976,0,0,1,1.152.331,1.844,1.844,0,0,1,.691.928,9.9,9.9,0,0,1,.213,2.629v4.087a.553.553,0,0,0,.553.553h2.214a.553.553,0,0,0,.553-.553V174.68a10.38,10.38,0,0,0-.183-2.234A3.658,3.658,0,0,0,192.15,171.051Z" transform="translate(-175.95 -165.154)" fill="#a353ff"/>
      </g>
    </g>
  </g>
</svg>
